<?xml version="1.0" encoding="UTF-8"?>
<svg width="95.5555556px" height="19.7142857px" viewBox="0 0 95.5555556 19.7142857" version="1.1" xmlns="http://www.w3.org/2000/svg" xmlns:xlink="http://www.w3.org/1999/xlink">
    <!-- Generator: Sketch 64 (93537) - https://sketch.com -->
    <desc>Created with Sketch.</desc>
    <g id="Page-2" stroke="none" stroke-width="1" fill="none" fill-rule="evenodd">
        <g id="Group" fill="#FFFFFF" fill-rule="nonzero">
            <path d="M24.2715424,3.57980255 C18.1095811,1.10147771 16.6749259,5.20907165 16.2515851,6.01223248 C12.8648582,0.872003184 8.18458988,0.0229474522 8.11403307,0 C8.67848754,0.917898089 9.12534734,1.56042675 10.0190669,3.94696178 C7.8788437,3.39622293 5.22120389,3.23559076 5.22120389,3.23559076 C5.22120389,3.23559076 8.65496861,5.39265127 10.724635,10.0050892 C6.86752944,11.772043 3.76302983,11.6343583 0,11.7490955 C0.846681712,12.1621497 7.52605966,15.9943742 14.8639678,13.2636274 C17.7332781,12.2539395 19.8970202,10.3263535 21.8961298,7.84802866 C23.1661524,6.1958121 23.8717205,4.88780732 27.5406746,3.41917038 C27.8934586,3.28148567 27.8699397,2.89137898 27.3525231,2.98316879 C27.3525231,2.96022134 25.141743,3.35032802 24.2715424,3.57980255 M7.38494604,4.1305414 C8.44329818,4.26822611 9.71332075,4.45180573 10.2307373,4.58949044 C10.7481539,6.12696974 11.1950137,8.2610828 11.2185327,9.82150955 C10.4894456,7.80213375 8.79608223,5.46149363 7.38494604,4.1305414" id="Shape"></path>
            <path d="M31.1184021,18.4694361 C30.3743039,18.4694361 29.723218,18.3532736 29.1418912,18.0977162 C28.5605645,17.8653914 28.07225,17.516904 27.6769479,17.0987193 C27.2816457,16.6805345 26.9793558,16.1694197 26.7700782,15.565375 C26.5608005,14.9613303 26.4677883,14.3108207 26.4677883,13.613846 C26.4677883,12.9168714 26.5608005,12.2663617 26.7700782,11.662317 C26.9793558,11.0582723 27.2816457,10.5471576 27.6769479,10.1289728 C28.07225,9.71078798 28.5605645,9.36230066 29.1418912,9.12997578 C29.723218,8.89765089 30.3743039,8.75825597 31.1184021,8.75825597 C31.8625003,8.75825597 32.5135863,8.87441841 33.094913,9.12997578 C33.6762397,9.36230066 34.1645542,9.71078798 34.5598564,10.1289728 C34.9551585,10.5471576 35.2574484,11.0582723 35.4667261,11.662317 C35.6760037,12.2663617 35.769016,12.8936389 35.769016,13.613846 C35.769016,14.3340531 35.6760037,14.9845628 35.4667261,15.565375 C35.2574484,16.1694197 34.9551585,16.6805345 34.5598564,17.0987193 C34.1645542,17.516904 33.6762397,17.8653914 33.094913,18.0977162 C32.5135863,18.3532736 31.8625003,18.4694361 31.1184021,18.4694361 M31.1184021,16.8663944 C31.5602104,16.8663944 31.9555126,16.7734644 32.3043086,16.5876045 C32.6298516,16.4017446 32.9088884,16.1461872 33.1181661,15.8441649 C33.3274437,15.5421425 33.4902152,15.1936552 33.5832274,14.7987029 C33.6762397,14.4037506 33.7459989,14.0087983 33.7459989,13.613846 C33.7459989,13.2188937 33.6994928,12.8239414 33.5832274,12.4289891 C33.4902152,12.0340368 33.3274437,11.6855495 33.1181661,11.3835271 C32.9088884,11.0815048 32.6298516,10.8259474 32.3043086,10.6400875 C31.9787657,10.4542276 31.5834635,10.3612977 31.1184021,10.3612977 C30.6765938,10.3612977 30.2812916,10.4542276 29.9324956,10.6400875 C29.6069526,10.8259474 29.3279158,11.0815048 29.1186382,11.3835271 C28.9093605,11.6855495 28.7465891,12.0340368 28.6535768,12.4289891 C28.5605645,12.8239414 28.4908053,13.2188937 28.4908053,13.613846 C28.4908053,14.0087983 28.5373114,14.4037506 28.6535768,14.7987029 C28.7465891,15.1936552 28.9093605,15.5421425 29.1186382,15.8441649 C29.3279158,16.1461872 29.6069526,16.4017446 29.9324956,16.5876045 C30.2812916,16.7734644 30.6765938,16.8663944 31.1184021,16.8663944" id="Shape"></path>
            <path d="M40.5824013,10.9421099 C40.1870991,11.1512023 40.0243276,11.2905972 39.7917969,11.5461546 C39.5592662,11.8249444 39.3732417,12.1037343 39.2337233,12.4986866 C39.0942049,12.8936389 39.0476987,13.3815211 39.0476987,13.8926359 L39.0476987,18.2138787 L37.0246817,18.2138787 L37.0246817,8.80472094 L38.9314334,8.80472094 L38.9314334,10.4774601 C38.9314334,10.4774601 39.7917969,8.80472094 42.4193938,8.80472094 L42.4193938,10.709785 C42.4193938,10.709785 41.3497526,10.616855 40.5824013,10.9421099" id="Shape"></path>
            <path d="M51.8368868,13.4744511 L51.8368868,13.4744511 L51.8368868,5.50570761 L49.906882,5.50570761 L49.906882,9.54816057 C49.6743514,9.38553315 49.4185676,9.24613822 49.1627838,9.12997578 C48.5814571,8.89765089 47.9303712,8.75825597 47.1862729,8.75825597 C46.4421747,8.75825597 45.7910888,8.87441841 45.2097621,9.12997578 C44.6284353,9.36230066 44.1401209,9.71078798 43.7448187,10.1289728 C43.3495165,10.5471576 43.0472266,11.0582723 42.837949,11.662317 C42.6286714,12.2663617 42.5356591,12.8936389 42.5356591,13.613846 C42.5356591,14.3340531 42.6286714,14.9845628 42.837949,15.565375 C43.0472266,16.1694197 43.3495165,16.6805345 43.7448187,17.0987193 C44.1401209,17.516904 44.6284353,17.8653914 45.2097621,18.0977162 C45.7910888,18.3300411 46.4421747,18.4694361 47.1862729,18.4694361 C47.9303712,18.4694361 48.5814571,18.3532736 49.1627838,18.0977162 C49.7441106,17.8653914 50.232425,17.516904 50.6277272,17.0987193 C51.0230294,16.6805345 51.3253193,16.1694197 51.5345969,15.565375 C51.7438745,14.9613303 51.8368868,14.3108207 51.8368868,13.613846 C51.8368868,13.5441485 51.8368868,13.5209161 51.8368868,13.4744511 M49.6510983,14.7754704 C49.558086,15.1704227 49.3953145,15.51891 49.1860369,15.8209324 C48.9767593,16.1229547 48.6977224,16.3785121 48.3721795,16.564372 C48.0466365,16.7502319 47.6513343,16.8431619 47.1862729,16.8431619 C46.7444646,16.8431619 46.3491625,16.7502319 46.0003664,16.564372 C45.6748234,16.3785121 45.3957866,16.1229547 45.186509,15.8209324 C44.9772314,15.51891 44.8144599,15.1704227 44.7214476,14.7754704 C44.6284353,14.3805181 44.5586761,13.9855658 44.5586761,13.5906135 C44.5586761,13.1956612 44.6051823,12.8007089 44.7214476,12.4057566 C44.8144599,12.0108043 44.9772314,11.662317 45.186509,11.3602947 C45.3957866,11.0582723 45.6748234,10.8027149 46.0003664,10.616855 C46.3259094,10.4309951 46.7212116,10.3380652 47.1862729,10.3380652 C47.6280813,10.3380652 48.0233834,10.4309951 48.3721795,10.616855 C48.6977224,10.8027149 48.9767593,11.0582723 49.1860369,11.3602947 C49.3953145,11.662317 49.558086,12.0108043 49.6510983,12.4057566 C49.7441106,12.8007089 49.8138698,13.1956612 49.8138698,13.5906135 C49.7906167,14.0087983 49.7441106,14.4037506 49.6510983,14.7754704" id="Shape"></path>
            <path d="M55.0225573,14.1249608 C55.0225573,14.4734481 55.0690634,14.8219354 55.1853288,15.1471902 C55.278341,15.4724451 55.4411125,15.7744674 55.6503901,16.0300248 C55.8596678,16.2855822 56.1154515,16.4714421 56.4177414,16.6340695 C56.7200313,16.7734644 57.0920804,16.8663944 57.5338888,16.8663944 C58.1384686,16.8663944 58.6035299,16.7502319 58.975579,16.4946746 C59.3476282,16.2391172 59.6034119,15.8673974 59.7894365,15.3562826 L61.7194412,15.3562826 C61.6031759,15.8441649 61.4171513,16.3088147 61.1613675,16.703767 C60.9055838,17.0987193 60.5800408,17.4239741 60.2079917,17.7027639 C59.8359426,17.9815538 59.4173874,18.1674137 58.975579,18.3068086 C58.5105177,18.4462036 58.0454563,18.515901 57.5338888,18.515901 C56.8130436,18.515901 56.1619577,18.3997386 55.603884,18.1674137 C55.0458103,17.9350888 54.580749,17.5866015 54.1854468,17.1684167 C53.7901446,16.7502319 53.5111078,16.2391172 53.3018302,15.6350725 C53.1158056,15.0310278 52.9995403,14.3805181 52.9995403,13.6835435 C52.9995403,13.0330338 53.0925525,12.4057566 53.3018302,11.8249444 C53.5111078,11.2441322 53.8133977,10.709785 54.1854468,10.2683677 C54.580749,9.82695043 55.0458103,9.4784631 55.5806309,9.19967324 C56.1387046,8.94411587 56.7432844,8.80472094 57.4408765,8.80472094 C58.1617216,8.80472094 58.8128076,8.96734836 59.3941343,9.26937071 C59.975461,9.57139305 60.4405224,9.96634535 60.8358246,10.4774601 C61.2078737,10.9653423 61.4869105,11.5461546 61.6729351,12.1966642 C61.8357066,12.8471739 61.8822127,13.5209161 61.8124535,14.1946582 L54.9760511,14.1946582 L54.9760511,14.1249608 L55.0225573,14.1249608 L55.0225573,14.1249608 Z M59.7661834,12.8007089 C59.7429303,12.4754541 59.6731711,12.1734317 59.5569058,11.8714094 C59.4406404,11.569387 59.2778689,11.3138297 59.0918444,11.1047373 C58.9058198,10.8956449 58.6500361,10.709785 58.3709992,10.57039 C58.0919624,10.4309951 57.7896725,10.3612977 57.4408765,10.3612977 C57.0920804,10.3612977 56.7665375,10.4309951 56.4642476,10.5471576 C56.1619577,10.66332 55.929427,10.8491799 55.7201494,11.0582723 C55.5108717,11.2673647 55.3481002,11.5461546 55.2318349,11.8249444 C55.1155696,12.1269668 55.0458103,12.4522216 55.0225573,12.7774764 L59.7661834,12.8007089 L59.7661834,12.8007089 Z" id="Shape"></path>
            <path d="M66.6025857,11.0115311 C66.2072836,11.2274147 66.0445121,11.371337 65.8119814,11.6351948 C65.5794507,11.9230396 65.3934261,12.2108844 65.2539077,12.6186645 C65.1143893,13.0264446 65.0678832,13.530173 65.0678832,14.0578885 L65.0678832,18.5194828 L63.0448662,18.5194828 L63.0448662,8.80472094 L64.9516178,8.80472094 L64.9516178,10.2439449 C64.9516178,10.2439449 65.8119814,8.80472094 68.4395782,8.80472094 L68.4395782,10.7716604 C68.4628313,10.7716604 67.369937,10.6757121 66.6025857,11.0115311" id="Shape"></path>
            <path d="M78.1593612,11.8999783 C77.9733366,11.3079577 77.6942998,10.7869796 77.3455037,10.337044 C76.9967077,9.88710832 76.5548994,9.53189597 76.0200788,9.27140691 C75.5085113,9.01091785 74.9039315,8.89251373 74.2295925,8.89251373 C73.5552534,8.89251373 72.9506736,9.03459867 72.4391061,9.27140691 C71.9275386,9.53189597 71.4857303,9.88710832 71.1136812,10.337044 C70.9509097,10.5501714 70.7881382,10.7869796 70.6718729,11.0237879 L70.6718729,5.48247512 L70.0207869,5.48247512 L70.0207869,13.7470826 L70.0207869,13.7470826 L70.0207869,13.7470826 C70.0207869,14.4101456 70.1137992,15.0495279 70.2998238,15.6415485 C70.4858483,16.2335691 70.7648851,16.7545472 71.1136812,17.2044828 C71.4624772,17.6544185 71.9042855,17.98595 72.4391061,18.2464391 C72.9506736,18.5069281 73.5552534,18.6253323 74.2295925,18.6253323 C74.9039315,18.6253323 75.5085113,18.5069281 76.0200788,18.2464391 C76.5316463,17.98595 76.9734546,17.6307377 77.3455037,17.2044828 C77.7175528,16.778228 77.9733366,16.2335691 78.1593612,15.6415485 C78.3453857,15.0495279 78.438398,14.4101456 78.438398,13.7470826 C78.438398,13.1077003 78.3453857,12.4919989 78.1593612,11.8999783 L78.1593612,11.8999783 Z M77.5315283,15.3810594 C77.3687568,15.9020375 77.1594792,16.3519732 76.8571893,16.7545472 C76.5548994,17.1571212 76.1828503,17.4649719 75.741042,17.7017801 C75.2992336,17.9385884 74.7876661,18.0569925 74.2295925,18.0569925 C73.6715188,18.0569925 73.1599513,17.9385884 72.718143,17.7017801 C72.2763346,17.4649719 71.9042855,17.1571212 71.6019956,16.7545472 C71.2997057,16.3519732 71.067175,15.9020375 70.9276566,15.3810594 C70.7648851,14.8600813 70.6951259,14.3391032 70.6951259,13.7707634 C70.6951259,13.2024236 70.7648851,12.6814455 70.9276566,12.1604674 C71.0904281,11.6394893 71.2997057,11.1895536 71.6019956,10.7869796 C71.9042855,10.3844056 72.2763346,10.0765549 72.718143,9.83974668 C73.1599513,9.60293844 73.6715188,9.48453432 74.2295925,9.48453432 C74.7876661,9.48453432 75.2992336,9.60293844 75.741042,9.83974668 C76.1828503,10.0765549 76.5548994,10.3844056 76.8571893,10.7869796 C77.1594792,11.1895536 77.3687568,11.6394893 77.5315283,12.1604674 C77.6942998,12.6814455 77.764059,13.2024236 77.764059,13.7707634 C77.764059,14.3391032 77.6942998,14.8600813 77.5315283,15.3810594 L77.5315283,15.3810594 Z" id="Shape"></path>
            <polygon id="Rectangle-path" points="79.9265944 8.92619048 80.6009334 8.92619048 80.6009334 18.6409524 79.9265944 18.6409524"></polygon>
            <path d="M83.4378079,11.0956723 L83.484314,11.0956723 C83.5773263,10.7775567 83.7168447,10.4839115 83.9493754,10.2147367 C84.1819061,9.94556195 84.4376898,9.70085762 84.7632328,9.50509416 C85.0655227,9.30933069 85.4143188,9.1625081 85.8096209,9.04015593 C86.2049231,8.9422742 86.6002253,8.89333333 87.0187805,8.89333333 L87.0187805,9.60297589 C86.6699845,9.55403502 86.2514292,9.57850546 85.7863679,9.72532806 C85.3213065,9.84768022 84.9027512,10.116855 84.484196,10.5573228 C84.3214245,10.7530862 84.1819061,10.9243793 84.0423877,11.0956723 C83.9261223,11.2669653 83.809857,11.4627288 83.7400978,11.6829627 C83.6470855,11.9031966 83.6005794,12.1234305 83.5540732,12.3926053 C83.5075671,12.66178 83.484314,12.9798956 83.4610609,13.3224817 L83.4610609,18.6080952 L82.7867219,18.6080952 L82.7867219,8.96674463 L83.4610609,8.96674463 L83.4378079,11.0956723 L83.4378079,11.0956723 Z" id="Shape"></path>
            <path d="M95.4596447,5.48247512 L94.8085587,5.48247512 L94.8085587,11.0138215 C94.6690403,10.7774391 94.5295219,10.5410568 94.3667504,10.3283127 C94.0179544,9.87918632 93.576146,9.52461284 93.0413255,9.26459228 C92.5297579,9.00457173 91.9251781,8.88638057 91.2508391,8.88638057 C90.5765001,8.88638057 89.9719203,9.02820996 89.4603528,9.26459228 C88.9255322,9.52461284 88.506977,9.87918632 88.1349279,10.3283127 C87.7861318,10.7774391 87.507095,11.2974803 87.3210704,11.8884361 C87.1350459,12.4793919 87.0420336,13.0939859 87.0420336,13.7558564 C87.0420336,14.4177269 87.1350459,15.0559592 87.3210704,15.646915 C87.507095,16.2378708 87.7861318,16.7579119 88.1349279,17.2070383 C88.4837239,17.6561647 88.9255322,17.9871 89.4603528,18.2471205 C89.9719203,18.5071411 90.5765001,18.6253323 91.2508391,18.6253323 C91.9251781,18.6253323 92.5297579,18.5071411 93.0413255,18.2471205 C93.552893,17.9871 93.9947013,17.6325265 94.3667504,17.2070383 C94.7155464,16.7579119 94.9945833,16.2378708 95.1806078,15.646915 C95.3666324,15.0559592 95.4596447,14.4177269 95.4596447,13.7558564 L95.4596447,13.7558564 L95.4596447,13.7558564 L95.4596447,5.48247512 L95.4596447,5.48247512 Z M94.552775,15.3632562 C94.3900035,15.8832973 94.1807258,16.3324237 93.8784359,16.7342737 C93.576146,17.1361236 93.2040969,17.4434206 92.7622886,17.679803 C92.3204803,17.9161853 91.8089128,18.0343765 91.2508391,18.0343765 C90.6695124,18.0343765 90.1811979,17.9161853 89.7393896,17.679803 C89.2975813,17.4434206 88.9255322,17.1361236 88.6232423,16.7342737 C88.3209524,16.3324237 88.1116748,15.8832973 87.9489033,15.3632562 C87.7861318,14.8432151 87.7163726,14.323174 87.7163726,13.7558564 C87.7163726,13.1885388 87.7861318,12.6684977 87.9489033,12.1484566 C88.1116748,11.6284155 88.3209524,11.1792891 88.6232423,10.7774391 C88.9255322,10.3755892 89.2975813,10.0682922 89.7393896,9.83190986 C90.1811979,9.59552754 90.6927655,9.47733637 91.2508391,9.47733637 C91.8321659,9.47733637 92.3204803,9.59552754 92.7622886,9.83190986 C93.2040969,10.0682922 93.576146,10.3755892 93.8784359,10.7774391 C94.1807258,11.1792891 94.4132565,11.6284155 94.552775,12.1484566 C94.7155464,12.6684977 94.7853056,13.1885388 94.7853056,13.7558564 C94.7853056,14.323174 94.7155464,14.8432151 94.552775,15.3632562 L94.552775,15.3632562 Z" id="Shape"></path>
        </g>
    </g>
</svg>