<?xml version="1.0" encoding="UTF-8"?>
<svg width="536px" height="210px" viewBox="0 0 536 210" version="1.1" xmlns="http://www.w3.org/2000/svg" xmlns:xlink="http://www.w3.org/1999/xlink">
    <!-- Generator: Sketch 63.1 (92452) - https://sketch.com -->
    <title>Timeline_DSG-879-DE</title>
    <desc>Created with Sketch.</desc>
    <defs>
        <linearGradient x1="1.97423986%" y1="50%" x2="100%" y2="50%" id="linearGradient-1">
            <stop stop-color="#EEEEEE" stop-opacity="0" offset="0%"></stop>
            <stop stop-color="#FDFDFD" offset="62.3759502%"></stop>
            <stop stop-color="#FFFFFF" offset="100%"></stop>
        </linearGradient>
        <linearGradient x1="1.97423986%" y1="50%" x2="100%" y2="50%" id="linearGradient-2">
            <stop stop-color="#EEEEEE" stop-opacity="0" offset="0%"></stop>
            <stop stop-color="#FDFDFD" offset="82.9458406%"></stop>
            <stop stop-color="#FFFFFF" offset="100%"></stop>
        </linearGradient>
    </defs>
    <g id="Timeline_DSG-879-DE" stroke="none" stroke-width="1" fill="none" fill-rule="evenodd">
        <g id="Group-5" transform="translate(25.000000, 86.000000)" fill="#F5F4F2">
            <path d="M536,0 L536,68 L0,68 L0,34.519 L276.031772,34.519084 C276.42596,34.519084 276.751732,34.2261609 276.80329,33.8461129 L276.810398,33.740458 C276.810398,33.3104348 276.461795,32.9618321 276.031772,32.9618321 L276.031772,32.9618321 L0,32.961 L0,0 L536,0 Z" id="Combined-Shape"></path>
        </g>
        <rect id="Rectangle-Copy-3" fill="#00A3E0" x="163" y="121" width="1" height="47"></rect>
        <g id="Group-3" transform="translate(293.000000, 86.000000)">
            <path d="M0,0 C2.84799173,1.73840786 5.15338959,3.94224657 6.91619359,6.61151614 C8.67899759,9.28078572 10.1444726,12.7868707 11.3126187,17.129771 L236,17.129771 L236,34 L1.34581993,34 L0,34 L0,0 Z" id="Rectangle-Copy-6" fill="#00557D"></path>
            <path d="M0.20276873,34 C4.51052365,34.8219275 7.32436538,36.7047608 8.64429392,39.6484998 C10.6241867,44.0641083 10.2459748,51.129771 12.0656681,51.129771 C13.278797,51.129771 92.2569076,51.129771 249,51.129771 L249,68 L0,68 L0.20276873,34 Z" id="Rectangle-Copy-7" fill="#7CC5EE" transform="translate(124.500000, 51.000000) scale(1, -1) translate(-124.500000, -51.000000) "></path>
            <path d="M0.20276873,0 C4.51052365,0.485854619 7.32436538,2.22329558 8.64429392,5.21232288 C10.6241867,9.69586383 10.2459748,16.870229 12.0656681,16.870229 C13.278797,16.870229 92.2569076,16.870229 249,16.870229 L249,34 L0,34 L0.20276873,0 Z" id="Rectangle-Copy-8" fill="#00557D"></path>
        </g>
        <rect id="Rectangle" fill="#00557D" x="80" y="86" width="213" height="33"></rect>
        <polygon id="Rectangle-Copy-4" fill="#7CC5EE" points="164 121 293 121 293 154 164 154"></polygon>
        <path d="M293,119 L294,119 C294.552285,119 295,119.447715 295,120 C295,120.552285 294.552285,121 294,121 L293,121 L293,121 L293,119 Z" id="Rectangle" fill="#FFFFFF"></path>
        <g id="Group-6" transform="translate(293.000000, 73.000000)" fill="#00A3E0">
            <g id="Group-2-Copy">
                <rect id="Rectangle" x="0" y="0" width="1" height="81"></rect>
            </g>
        </g>
        <g id="Group-7" transform="translate(499.000000, 73.000000)" fill="#00A3E0">
            <g id="Group-2-Copy-2">
                <rect id="Rectangle" x="0" y="0" width="1" height="81"></rect>
            </g>
        </g>
        <g id="Group-2" transform="translate(39.000000, 47.000000)">
            <rect id="Rectangle" fill="#00A3E0" x="40" y="25" width="1" height="47"></rect>
            <g id="Group-4" fill="#414445">
                <text id="15.-Oktober" font-family="Helvetica-Bold, Helvetica" font-size="12" font-weight="bold" letter-spacing="-0.200000003">
                    <tspan x="8.08828127" y="11">15. Oktober</tspan>
                </text>
                <text id="Kauf" font-family="Helvetica" font-size="10" font-weight="normal" letter-spacing="-0.166666669">
                    <tspan x="30.5476888" y="21">Kauf</tspan>
                </text>
            </g>
            <g id="Group-4-Copy-3" transform="translate(84.000000, 125.000000)" fill="#414445">
                <text id="29.-Januar" font-family="Helvetica-Bold, Helvetica" font-size="12" font-weight="bold" letter-spacing="-0.200000003">
                    <tspan x="11.3164063" y="11">29. Januar</tspan>
                </text>
                <text id="Kauf" font-family="Helvetica" font-size="10" font-weight="normal" letter-spacing="-0.166666669">
                    <tspan x="30.5476888" y="21">Kauf</tspan>
                </text>
            </g>
            <g id="Group-4-Copy" transform="translate(215.000000, 0.000000)" fill="#414445">
                <text id="15.-Oktober" font-family="Helvetica-Bold, Helvetica" font-size="12" font-weight="bold" letter-spacing="-0.200000003">
                    <tspan x="8.08828127" y="11">15. Oktober</tspan>
                </text>
                <text id="Kauf" font-family="Helvetica" font-size="10" font-weight="normal" letter-spacing="-0.166666669">
                    <tspan x="30.5476888" y="21">Kauf</tspan>
                </text>
            </g>
            <g id="Group-4-Copy-2" transform="translate(418.000000, 0.000000)" fill="#414445">
                <text id="15.-Oktober" font-family="Helvetica-Bold, Helvetica" font-size="12" font-weight="bold" letter-spacing="-0.200000003">
                    <tspan x="8.08828127" y="11">15. Oktober</tspan>
                </text>
                <text id="Kauf" font-family="Helvetica" font-size="10" font-weight="normal" letter-spacing="-0.166666669">
                    <tspan x="30.5476888" y="21">Kauf</tspan>
                </text>
            </g>
        </g>
        <rect id="Rectangle" fill="url(#linearGradient-1)" x="479" y="86" width="91" height="68"></rect>
        <rect id="Rectangle-Copy-5" fill="url(#linearGradient-2)" transform="translate(44.500000, 120.000000) scale(-1, 1) translate(-44.500000, -120.000000) " x="9" y="86" width="71" height="68"></rect>
        <text id="Service-Lizenz" font-family="Helvetica" font-size="11" font-weight="normal" letter-spacing="-0.183333336" fill="#414445">
            <tspan x="3" y="106">Service Lizenz</tspan>
        </text>
        <text id="Online-TSE-Lizenz" font-family="Helvetica" font-size="11" font-weight="normal" letter-spacing="-0.183333336" fill="#414445">
            <tspan x="4.70530601" y="140">Online-TSE Lizenz</tspan>
        </text>
        <g id="noun_bills_781777" transform="translate(89.000000, 95.000000)" fill="#F5F4F2" fill-rule="nonzero">
            <path d="M14.0757231,2.44197138 L12.4648405,0.864864865 L11.5933794,0 L10.4314313,0 L3.96149293,0 C2.95799229,0 2.16575494,0.788553259 2.16575494,1.72972973 L2.16575494,2.08585056 L1.37351759,2.28934817 C0.396424859,2.51828299 -0.184549197,3.45945946 0.0531220078,4.40063593 L2.16575494,12.5151033 C2.19216285,12.6931638 2.21857076,12.845787 2.2977945,12.9984102 L2.746729,14.6772655 C2.85236064,15.1351351 3.16925558,15.5166932 3.56537426,15.745628 C3.85586128,15.8982512 4.17275622,16 4.48965116,16 C4.64809863,16 4.78013819,15.9745628 4.93858566,15.9491256 L12.5704721,14.0922099 L13.8644598,13.7869634 C14.1549468,13.7106518 14.4190259,13.5834658 14.6566971,13.3799682 C14.8679604,13.100159 15,12.7440382 15,12.3624801 L15,4.47694754 L15,3.33227345 L14.0757231,2.44197138 Z M2.13934703,8.90302067 L0.898175181,4.17170111 C0.766135622,3.71383148 1.08303056,3.23052464 1.55837297,3.12877583 L2.13934703,2.97615262 L2.13934703,8.90302067 Z M13.8908677,3.43402226 L12.2535772,3.43402226 C11.699011,3.43402226 11.2500765,3.00158983 11.2500765,2.46740859 L11.2500765,0.864864865 L11.3028924,0.864864865 L13.8908677,3.43402226 Z M4.70091446,15.0842607 C4.46324325,15.1351351 4.22557205,15.1096979 4.01430875,14.9825119 C3.80304546,14.8553259 3.6710059,14.6772655 3.59178217,14.4483307 L3.48615052,14.0158983 C3.64459799,14.0667727 3.80304546,14.0667727 3.96149293,14.0667727 L8.8733645,14.0667727 L4.70091446,15.0842607 Z M13.9436835,12.7694754 C13.7852361,13.0238474 13.494749,13.2019078 13.1514462,13.2019078 L3.96149293,13.2019078 C3.59178217,13.2019078 3.30129514,12.9984102 3.14284767,12.718601 L3.06362394,12.3879173 C3.06362394,12.3624801 3.06362394,12.3624801 3.06362394,12.3370429 L3.06362394,1.72972973 C3.06362394,1.24642289 3.45974261,0.864864865 3.96149293,0.864864865 L10.4314313,0.864864865 L10.4314313,2.46740859 C10.4314313,3.43402226 11.2500765,4.22257552 12.2535772,4.22257552 L14.0757231,4.22257552 L14.0757231,12.3370429 C14.0757231,12.4896661 14.0229073,12.6422893 13.9436835,12.7694754 Z" id="Shape"></path>
            <rect id="Rectangle" x="5" y="8.77419355" width="2" height="1"></rect>
            <rect id="Rectangle" x="8" y="8.77419355" width="4" height="1"></rect>
            <rect id="Rectangle" x="10" y="7.77419355" width="2" height="1"></rect>
            <rect id="Rectangle" x="5" y="7.77419355" width="4" height="1"></rect>
            <rect id="Rectangle" x="5" y="10.7741935" width="5" height="1"></rect>
            <rect id="Rectangle" x="11" y="10.7741935" width="1" height="1"></rect>
            <path d="M7.32248735,6 C8.2219812,6 8.82935647,5.55432526 9,4.8567474 L8.36659436,4.8567474 C8.23355025,5.216609 7.87201735,5.46020761 7.32537961,5.46020761 C6.7527115,5.46020761 6.31597975,5.12525952 6.15112075,4.55224913 L7.73608098,4.55224913 L7.73608098,4.22560554 L6.08749096,4.22560554 C6.08170644,4.15086505 6.07592191,4.07612457 6.07592191,3.99861592 C6.07592191,3.92110727 6.08170644,3.84359862 6.08749096,3.7716263 L7.73608098,3.7716263 L7.73608098,3.4449827 L6.15112075,3.4449827 C6.32176428,2.87750865 6.75560376,2.53979239 7.32248735,2.53979239 C7.85755604,2.53979239 8.25090383,2.83598616 8.36948662,3.22906574 L9,3.22906574 C8.88430947,2.52595156 8.22487346,2 7.32248735,2 C6.37960954,2 5.6912509,2.54532872 5.49457701,3.4449827 L5,3.4449827 L5,3.7716263 L5.44540853,3.7716263 C5.43962401,3.84636678 5.43673174,3.92110727 5.43673174,3.99861592 C5.43673174,4.07612457 5.43962401,4.15086505 5.44540853,4.22560554 L5,4.22560554 L5,4.55224913 L5.49168474,4.55224913 C5.68546638,5.45743945 6.37382502,6 7.32248735,6 Z" id="€"></path>
        </g>
        <g id="noun_bills_781777-copy" transform="translate(176.000000, 130.000000)" fill="#F5F4F2" fill-rule="nonzero">
            <path d="M13.1373416,2.44197138 L11.6338511,0.864864865 L10.8204874,0 L9.73600253,0 L3.6973934,0 C2.7607928,0 2.02137128,0.788553259 2.02137128,1.72972973 L2.02137128,2.08585056 L1.28194975,2.28934817 C0.369996535,2.51828299 -0.172245917,3.45945946 0.0495805406,4.40063593 L2.02137128,12.5151033 C2.04601866,12.6931638 2.07066605,12.845787 2.1446082,12.9984102 L2.56361373,14.6772655 C2.66220327,15.1351351 2.95797188,15.5166932 3.32768264,15.745628 C3.59880387,15.8982512 3.89457248,16 4.19034109,16 C4.33822539,16 4.46146231,15.9745628 4.60934662,15.9491256 L11.7324407,14.0922099 L12.9401625,13.7869634 C13.2112837,13.7106518 13.4577575,13.5834658 13.679584,13.3799682 C13.8767631,13.100159 14,12.7440382 14,12.3624801 L14,4.47694754 L14,3.33227345 L13.1373416,2.44197138 Z M1.99672389,8.90302067 L0.838296835,4.17170111 C0.715059914,3.71383148 1.01082852,3.23052464 1.45448144,3.12877583 L1.99672389,2.97615262 L1.99672389,8.90302067 Z M12.9648099,3.43402226 L11.436672,3.43402226 C10.919077,3.43402226 10.5000714,3.00158983 10.5000714,2.46740859 L10.5000714,0.864864865 L10.5493662,0.864864865 L12.9648099,3.43402226 Z M4.38752016,15.0842607 C4.1656937,15.1351351 3.94386724,15.1096979 3.74668817,14.9825119 C3.5495091,14.8553259 3.42627218,14.6772655 3.35233002,14.4483307 L3.25374049,14.0158983 C3.40162479,14.0667727 3.5495091,14.0667727 3.6973934,14.0667727 L8.28180686,14.0667727 L4.38752016,15.0842607 Z M13.0141046,12.7694754 C12.8662203,13.0238474 12.5950991,13.2019078 12.2746831,13.2019078 L3.6973934,13.2019078 C3.35233002,13.2019078 3.0812088,12.9984102 2.93332449,12.718601 L2.85938234,12.3879173 C2.85938234,12.3624801 2.85938234,12.3624801 2.85938234,12.3370429 L2.85938234,1.72972973 C2.85938234,1.24642289 3.2290931,0.864864865 3.6973934,0.864864865 L9.73600253,0.864864865 L9.73600253,2.46740859 C9.73600253,3.43402226 10.5000714,4.22257552 11.436672,4.22257552 L13.1373416,4.22257552 L13.1373416,12.3370429 C13.1373416,12.4896661 13.0880468,12.6422893 13.0141046,12.7694754 Z" id="Shape"></path>
            <rect id="Rectangle" x="4" y="8.77419355" width="2" height="1"></rect>
            <rect id="Rectangle" x="7" y="8.77419355" width="4" height="1"></rect>
            <rect id="Rectangle" x="9" y="7.77419355" width="2" height="1"></rect>
            <rect id="Rectangle" x="4" y="7.77419355" width="4" height="1"></rect>
            <rect id="Rectangle" x="5" y="10.7741935" width="4" height="1"></rect>
            <rect id="Rectangle" x="10" y="10.7741935" width="1" height="1"></rect>
            <path d="M6.32248735,6 C7.2219812,6 7.82935647,5.55432526 8,4.8567474 L7.36659436,4.8567474 C7.23355025,5.216609 6.87201735,5.46020761 6.32537961,5.46020761 C5.7527115,5.46020761 5.31597975,5.12525952 5.15112075,4.55224913 L6.73608098,4.55224913 L6.73608098,4.22560554 L5.08749096,4.22560554 C5.08170644,4.15086505 5.07592191,4.07612457 5.07592191,3.99861592 C5.07592191,3.92110727 5.08170644,3.84359862 5.08749096,3.7716263 L6.73608098,3.7716263 L6.73608098,3.4449827 L5.15112075,3.4449827 C5.32176428,2.87750865 5.75560376,2.53979239 6.32248735,2.53979239 C6.85755604,2.53979239 7.25090383,2.83598616 7.36948662,3.22906574 L8,3.22906574 C7.88430947,2.52595156 7.22487346,2 6.32248735,2 C5.37960954,2 4.6912509,2.54532872 4.49457701,3.4449827 L4,3.4449827 L4,3.7716263 L4.44540853,3.7716263 C4.43962401,3.84636678 4.43673174,3.92110727 4.43673174,3.99861592 C4.43673174,4.07612457 4.43962401,4.15086505 4.44540853,4.22560554 L4,4.22560554 L4,4.55224913 L4.49168474,4.55224913 C4.68546638,5.45743945 5.37382502,6 6.32248735,6 Z" id="€"></path>
        </g>
        <g id="noun_bills_781777-copy-2" transform="translate(316.000000, 112.000000)" fill="#F5F4F2" fill-rule="nonzero">
            <path d="M14.0757231,2.44197138 L12.4648405,0.864864865 L11.5933794,0 L10.4314313,0 L3.96149293,0 C2.95799229,0 2.16575494,0.788553259 2.16575494,1.72972973 L2.16575494,2.08585056 L1.37351759,2.28934817 C0.396424859,2.51828299 -0.184549197,3.45945946 0.0531220078,4.40063593 L2.16575494,12.5151033 C2.19216285,12.6931638 2.21857076,12.845787 2.2977945,12.9984102 L2.746729,14.6772655 C2.85236064,15.1351351 3.16925558,15.5166932 3.56537426,15.745628 C3.85586128,15.8982512 4.17275622,16 4.48965116,16 C4.64809863,16 4.78013819,15.9745628 4.93858566,15.9491256 L12.5704721,14.0922099 L13.8644598,13.7869634 C14.1549468,13.7106518 14.4190259,13.5834658 14.6566971,13.3799682 C14.8679604,13.100159 15,12.7440382 15,12.3624801 L15,4.47694754 L15,3.33227345 L14.0757231,2.44197138 Z M2.13934703,8.90302067 L0.898175181,4.17170111 C0.766135622,3.71383148 1.08303056,3.23052464 1.55837297,3.12877583 L2.13934703,2.97615262 L2.13934703,8.90302067 Z M13.8908677,3.43402226 L12.2535772,3.43402226 C11.699011,3.43402226 11.2500765,3.00158983 11.2500765,2.46740859 L11.2500765,0.864864865 L11.3028924,0.864864865 L13.8908677,3.43402226 Z M4.70091446,15.0842607 C4.46324325,15.1351351 4.22557205,15.1096979 4.01430875,14.9825119 C3.80304546,14.8553259 3.6710059,14.6772655 3.59178217,14.4483307 L3.48615052,14.0158983 C3.64459799,14.0667727 3.80304546,14.0667727 3.96149293,14.0667727 L8.8733645,14.0667727 L4.70091446,15.0842607 Z M13.9436835,12.7694754 C13.7852361,13.0238474 13.494749,13.2019078 13.1514462,13.2019078 L3.96149293,13.2019078 C3.59178217,13.2019078 3.30129514,12.9984102 3.14284767,12.718601 L3.06362394,12.3879173 C3.06362394,12.3624801 3.06362394,12.3624801 3.06362394,12.3370429 L3.06362394,1.72972973 C3.06362394,1.24642289 3.45974261,0.864864865 3.96149293,0.864864865 L10.4314313,0.864864865 L10.4314313,2.46740859 C10.4314313,3.43402226 11.2500765,4.22257552 12.2535772,4.22257552 L14.0757231,4.22257552 L14.0757231,12.3370429 C14.0757231,12.4896661 14.0229073,12.6422893 13.9436835,12.7694754 Z" id="Shape"></path>
            <rect id="Rectangle" x="5" y="8.77419355" width="2" height="1"></rect>
            <rect id="Rectangle" x="8" y="8.77419355" width="4" height="1"></rect>
            <rect id="Rectangle" x="10" y="7.77419355" width="2" height="1"></rect>
            <rect id="Rectangle" x="5" y="7.77419355" width="4" height="1"></rect>
            <rect id="Rectangle" x="5" y="10.7741935" width="5" height="1"></rect>
            <rect id="Rectangle" x="11" y="10.7741935" width="1" height="1"></rect>
            <path d="M7.32248735,6 C8.2219812,6 8.82935647,5.55432526 9,4.8567474 L8.36659436,4.8567474 C8.23355025,5.216609 7.87201735,5.46020761 7.32537961,5.46020761 C6.7527115,5.46020761 6.31597975,5.12525952 6.15112075,4.55224913 L7.73608098,4.55224913 L7.73608098,4.22560554 L6.08749096,4.22560554 C6.08170644,4.15086505 6.07592191,4.07612457 6.07592191,3.99861592 C6.07592191,3.92110727 6.08170644,3.84359862 6.08749096,3.7716263 L7.73608098,3.7716263 L7.73608098,3.4449827 L6.15112075,3.4449827 C6.32176428,2.87750865 6.75560376,2.53979239 7.32248735,2.53979239 C7.85755604,2.53979239 8.25090383,2.83598616 8.36948662,3.22906574 L9,3.22906574 C8.88430947,2.52595156 8.22487346,2 7.32248735,2 C6.37960954,2 5.6912509,2.54532872 5.49457701,3.4449827 L5,3.4449827 L5,3.7716263 L5.44540853,3.7716263 C5.43962401,3.84636678 5.43673174,3.92110727 5.43673174,3.99861592 C5.43673174,4.07612457 5.43962401,4.15086505 5.44540853,4.22560554 L5,4.22560554 L5,4.55224913 L5.49168474,4.55224913 C5.68546638,5.45743945 6.37382502,6 7.32248735,6 Z" id="€"></path>
        </g>
        <g id="Group" transform="translate(91.000000, 13.000000)">
            <g id="Group-8">
                <text id="2019" font-family="Helvetica" font-size="11" font-weight="normal" letter-spacing="-0.183333336" fill="#898989">
                    <tspan x="13.1313151" y="10">2019</tspan>
                </text>
                <text id="2020" font-family="Helvetica" font-size="11" font-weight="normal" letter-spacing="-0.183333336" fill="#898989">
                    <tspan x="51.1313151" y="10">2020</tspan>
                </text>
                <path d="M5.89442719,2.78885438 L9.2763932,9.5527864 C9.52338245,10.0467649 9.3231581,10.6474379 8.82917961,10.8944272 C8.69032417,10.9638549 8.53721111,11 8.38196601,11 L1.61803399,11 C1.06574924,11 0.618033989,10.5522847 0.618033989,10 C0.618033989,9.8447549 0.654179081,9.69164184 0.723606798,9.5527864 L4.10557281,2.78885438 C4.35256206,2.29487588 4.9532351,2.09465154 5.4472136,2.34164079 C5.640741,2.43840449 5.79766349,2.59532698 5.89442719,2.78885438 Z" id="Triangle" fill="#7CC5EE" transform="translate(5.000000, 6.000000) rotate(270.000000) translate(-5.000000, -6.000000) "></path>
                <path d="M84.8944272,2.78885438 L88.2763932,9.5527864 C88.5233825,10.0467649 88.3231581,10.6474379 87.8291796,10.8944272 C87.6903242,10.9638549 87.5372111,11 87.381966,11 L80.618034,11 C80.0657492,11 79.618034,10.5522847 79.618034,10 C79.618034,9.8447549 79.6541791,9.69164184 79.7236068,9.5527864 L83.1055728,2.78885438 C83.3525621,2.29487588 83.9532351,2.09465154 84.4472136,2.34164079 C84.640741,2.43840449 84.7976635,2.59532698 84.8944272,2.78885438 Z" id="Triangle-Copy" fill="#7CC5EE" transform="translate(84.000000, 6.000000) rotate(90.000000) translate(-84.000000, -6.000000) "></path>
            </g>
            <rect id="Rectangle-Copy" fill="#00A3E0" x="42.9333333" y="0" width="1.5" height="141"></rect>
        </g>
        <g id="Group-Copy" transform="translate(311.000000, 13.000000)">
            <g id="Group-8">
                <text id="2020" font-family="Helvetica" font-size="11" font-weight="normal" letter-spacing="-0.183333336" fill="#898989">
                    <tspan x="13.1313151" y="10">2020</tspan>
                </text>
                <text id="2021" font-family="Helvetica" font-size="11" font-weight="normal" letter-spacing="-0.183333336" fill="#898989">
                    <tspan x="51.1313151" y="10">2021</tspan>
                </text>
                <path d="M5.89442719,2.78885438 L9.2763932,9.5527864 C9.52338245,10.0467649 9.3231581,10.6474379 8.82917961,10.8944272 C8.69032417,10.9638549 8.53721111,11 8.38196601,11 L1.61803399,11 C1.06574924,11 0.618033989,10.5522847 0.618033989,10 C0.618033989,9.8447549 0.654179081,9.69164184 0.723606798,9.5527864 L4.10557281,2.78885438 C4.35256206,2.29487588 4.9532351,2.09465154 5.4472136,2.34164079 C5.640741,2.43840449 5.79766349,2.59532698 5.89442719,2.78885438 Z" id="Triangle" fill="#7CC5EE" transform="translate(5.000000, 6.000000) rotate(270.000000) translate(-5.000000, -6.000000) "></path>
                <path d="M84.8944272,2.78885438 L88.2763932,9.5527864 C88.5233825,10.0467649 88.3231581,10.6474379 87.8291796,10.8944272 C87.6903242,10.9638549 87.5372111,11 87.381966,11 L80.618034,11 C80.0657492,11 79.618034,10.5522847 79.618034,10 C79.618034,9.8447549 79.6541791,9.69164184 79.7236068,9.5527864 L83.1055728,2.78885438 C83.3525621,2.29487588 83.9532351,2.09465154 84.4472136,2.34164079 C84.640741,2.43840449 84.7976635,2.59532698 84.8944272,2.78885438 Z" id="Triangle-Copy" fill="#7CC5EE" transform="translate(84.000000, 6.000000) rotate(90.000000) translate(-84.000000, -6.000000) "></path>
            </g>
            <rect id="Rectangle-Copy" fill="#00A3E0" x="42.9333333" y="0" width="1.5" height="141"></rect>
        </g>
    </g>
</svg>